<svg height="458pt" viewBox="0 -23 458.01599 458" width="458pt" xmlns="http://www.w3.org/2000/svg"><path d="m308.503906 221.699219v.070312c-35.726562 0-66.902344 24.230469-75.726562 58.847657l-1.25-.300782-93.839844-.128906h-.300781l.257812-170.738281c.023438-16.199219 13.171875-29.3125 29.371094-29.292969l82.460937.121094c6.011719.011718 11.648438 2.929687 15.128907 7.832031l37.992187 53.480469c.773438 1.085937 1.726563 2.035156 2.816406 2.808594 1.992188 1.414062 4.371094 2.171874 6.8125 2.167968l17.878907.03125v1.808594l21.371093 18.570312 21.359376 18.570313h2.800781l-.03125 17.640625c-.015625 10.273438-8.355469 18.589844-18.628907 18.582031zm-52.207031-93.980469v-.019531c-.007813-3.054688-2.484375-5.523438-5.535156-5.519531-3.050781.003906-5.523438 2.476562-5.523438 5.527343s2.472657 5.527344 5.523438 5.53125c3.050781 0 5.527343-2.46875 5.535156-5.519531zm0 0" fill="#e48e66"/><path d="m230.375 307.449219-.039062 95.910156c-.449219.050781-.898438.082031-1.351563.089844-1.882813-.101563-3.742187-.472657-5.519531-1.101563-54.320313-21.550781-97.277344-48.949218-130.039063-79.351562h3.679688c12.492187.011718 24.28125-5.785156 31.898437-15.6875zm0 0" fill="#d18162"/><path d="m229.996094 80.242188-58.980469-.085938c-16.199219-.019531-29.347656 13.09375-29.371094 29.292969l-.257812 170.738281h.300781l88.308594.121094zm0 0" fill="#d18162"/><path d="m229.996094 280.316406-92.308594-.128906h-.300781v2.582031c0 8.882813-2.945313 17.511719-8.382813 24.539063l100.992188.136718zm0 0" fill="#e2d574"/><path d="m230.375 307.449219v-7.671875c.027344-43.121094 35.011719-78.050782 78.128906-78.007813v-.070312l48.472656.070312c10.273438.007813 18.613282-8.308593 18.628907-18.582031l.03125-17.640625.027343-24.230469c.011719-8.09375-6.542968-14.667968-14.636718-14.679687l-30.921875-.039063-17.878907-.03125c-2.441406.003906-4.820312-.753906-6.8125-2.167968-1.089843-.773438-2.042968-1.722657-2.816406-2.808594l-37.992187-53.480469c-3.480469-4.902344-9.117188-7.820313-15.128907-7.832031l-82.460937-.121094c-16.199219-.019531-29.347656 13.09375-29.371094 29.292969l-.257812 170.738281v2.582031c-.03125 22.222657-18.054688 40.226563-40.28125 40.226563h-3.679688c-70.378906-65.289063-93.671875-144.429688-81.25-209.167969 12.140625-64 56.828125-104.820313 114.75-104.820313 32.550781 0 67.300781 13.238282 102.058594 39.171876 34.203125-24.832032 69.511719-38.070313 101.511719-38.070313 57.917968 0 102.609375 40.820313 115.300781 103.71875 18.199219 93.78125-39.722656 219.011719-211.292969 288.519531-1.355468.457032-2.75.796875-4.167968 1.011719zm57.621094 41.039062-2.039063-8.859375c-4.507812-19.523437-23.984375-31.699218-43.511719-27.199218l-8.859374 2.039062 2.039062 8.859375c4.511719 19.523437 23.992188 31.699219 43.519531 27.199219zm0 0" fill="#f8ec7d"/><path d="m242.445312 312.429688-8.859374 2.039062 2.039062 8.859375c4.511719 19.523437 23.992188 31.699219 43.519531 27.199219l8.851563-2.039063-2.039063-8.859375c-4.507812-19.523437-23.984375-31.699218-43.511719-27.199218zm0 0" fill="#e2d574"/><path d="m228.984375 48.179688c-34.757813-25.933594-69.507813-39.171876-102.058594-39.171876-57.921875 0-102.609375 40.820313-114.75 104.820313-12.421875 64.738281 10.871094 143.878906 81.25 209.167969h3.679688c22.226562 0 40.25-18.003906 40.28125-40.226563v-2.582031l.257812-170.738281c.023438-16.199219 13.171875-29.3125 29.371094-29.292969l61.980469.089844v-32.074219zm0 0" fill="#e2d574"/><path d="m361.027344 146.636719c8.09375.011719 14.648437 6.585937 14.636718 14.679687l-.027343 24.230469h-2.800781l-21.359376-18.570313-21.371093-18.570312v-1.808594zm0 0" fill="#e48e66"/><path d="m285.957031 339.628906 2.039063 8.859375-8.851563 2.039063c-19.527343 4.5-39.007812-7.675782-43.519531-27.199219l-2.039062-8.859375 8.859374-2.039062c19.527344-4.5 39.003907 7.675781 43.511719 27.199218zm0 0" fill="#e48e66"/><path d="m256.296875 127.699219v.019531c-.007813 3.035156-2.46875 5.492188-5.507813 5.488281-3.035156 0-5.492187-2.464843-5.492187-5.5 0-3.035156 2.457031-5.496093 5.492187-5.5 3.039063 0 5.5 2.457031 5.507813 5.492188zm0 0" fill="#f8ec7d"/><path d="m231.527344 280.316406 1.25.300782c-1.589844 6.261718-2.398438 12.699218-2.402344 19.160156v7.671875l-101.371094-.140625c5.4375-7.027344 8.382813-15.65625 8.382813-24.539063v-2.582031h.300781zm0 0" fill="#f8ec7d"/><path d="m230.375 307.449219-.039062 95.910156c-.449219.050781-.898438.082031-1.351563.089844-1.882813-.101563-3.742187-.472657-5.519531-1.101563-54.320313-21.550781-97.277344-48.949218-130.039063-79.351562h3.679688c12.492187.011718 24.28125-5.785156 31.898437-15.6875zm0 0" fill="#e48e66"/><g fill="#63316d"><path d="m221.316406 131.867188h-.011718c-4.964844 0-8.992188 4.023437-9 8.988281l-.027344 21.109375c-.058594 22.371094-15.914063 41.585937-37.867188 45.886718l.144532-103.710937c.007812-4.96875-4.015626-9.007813-8.988282-9.011719h-.011718c-4.964844 0-8.992188 4.019532-9 8.988282l-.160157 113.578124c-.003906 4.972657 4.019531 9.007813 8.988281 9.011719h.085938c35.738281-.039062 64.71875-28.976562 64.808594-64.714843l.027344-21.113282c.007812-4.96875-4.015626-9.003906-8.988282-9.011718zm0 0"/><path d="m250.804688 113.207031c-8.015626-.007812-14.523438 6.484375-14.527344 14.503907-.003906 8.019531 6.496094 14.519531 14.515625 14.515624 8.019531-.003906 14.511719-6.511718 14.503906-14.527343.003906-3.847657-1.519531-7.535157-4.238281-10.253907s-6.40625-4.242187-10.253906-4.238281zm2.445312 17c-1.003906.988281-2.503906 1.277344-3.804688.734375-1.296874-.542968-2.144531-1.8125-2.148437-3.21875.003906-.941406.382813-1.84375 1.054687-2.507812 1.003907-.988282 2.5-1.277344 3.800782-.734375 1.296875.542969 2.144531 1.8125 2.144531 3.222656-.003906.9375-.382813 1.839844-1.046875 2.5zm0 0"/><path d="m330.496094 1.109375c-32.320313 0-67.277344 12.421875-101.433594 35.988281-34.632812-24.617187-68.964844-37.0898435-102.136719-37.0898435-62.15625 0-110.671875 44.0195315-123.589843 112.1210935-6.703126 34.949219-3.2617192 72.691406 9.953124 109.140625 14.148438 39.023438 38.5 74.933594 72.367188 106.773438.773438 1.136719 1.796875 2.078125 2.988281 2.761719 35.28125 32.390624 79.5 59.277343 131.5 79.90625.160157.0625.324219.121093.488281.175781 2.691407.941406 5.503907 1.464843 8.351563 1.558593.769531-.007812 1.535156-.054687 2.300781-.140624.085938-.011719.175782-.019532.265625-.03125 1.964844-.289063 3.898438-.753907 5.78125-1.382813.183594-.0625.371094-.132813.550781-.203125 80.664063-32.679688 143.246094-80.597656 180.972657-138.589844 33.191406-51.011718 45.894531-107.828125 35.761719-160.050781-13.59375-67.390625-62.316407-110.9375-124.121094-110.9375zm-216.480469 327.917969c7.292969-2.660156 13.84375-7.019532 19.117187-12.714844l88.234376.121094-.027344 75.324218c-41.324219-16.941406-77.332032-37.980468-107.324219-62.730468zm252.640625-160.773438-14.527344-12.625 8.886719.011719c3.125.007813 5.652344 2.542969 5.648437 5.667969zm-42.011719-12.667968 41.976563 36.484374-.015625 11.101563c-.015625 5.300781-4.308594 9.589844-9.605469 9.601563h-.011719l-82.761719-.121094c-13.484374-.011719-26.695312-3.828125-38.109374-11.007813-4.207032-2.59375-9.710938-1.308593-12.339844 2.871094s-1.398438 9.699219 2.757812 12.367187c9.523438 5.984376 20.089844 10.125 31.144532 12.207032-14.621094 10.472656-25.628907 25.226562-31.507813 42.222656l-79.769531-.109375.242187-161.742187c.015625-11.214844 9.113281-20.300782 20.332031-20.300782h.027344l82.457032.121094c3.101562.007812 6.011718 1.515625 7.808593 4.042969l37.984375 53.476562c1.359375 1.90625 3.027344 3.574219 4.933594 4.929688 3.511719 2.496093 7.714844 3.839843 12.023438 3.839843zm-178.683593 133.613281 76.058593.105469c-.367187 3.03125-.574219 6.078124-.621093 9.128906l-77.53125-.105469c.988281-2.96875 1.691406-6.027344 2.09375-9.128906zm257.808593-26.917969c-34.433593 52.921875-91.171875 97.160156-164.429687 128.308594l.015625-43.042969c11.019531 10.796875 26.785156 15.226563 41.8125 11.75l8.847656-2.039063c4.84375-1.117187 7.867187-5.945312 6.75-10.789062l-2.039063-8.863281c-5.625-24.363281-29.933593-39.5625-54.300781-33.949219l-1.054687.242188v-4.109376c.019531-38.152343 30.976562-69.058593 69.128906-69.019531h.113281v-.070312l48.351563.070312h.03125c15.222656-.023437 27.5625-12.34375 27.609375-27.566406l.0625-41.875c0-13.058594-10.570313-23.65625-23.628907-23.691406l-48.8125-.070313c-.566406.003906-1.121093-.171875-1.585937-.5-.273437-.1875-.511719-.421875-.707031-.691406l-37.988282-53.480469c-5.171874-7.265625-13.535156-11.59375-22.457031-11.617187l-82.460937-.121094h-.046875c-21.148438 0-38.304688 17.128906-38.332031 38.277344l-.261719 170.753906v2.570312c-.027344 17.257813-14.023438 31.238282-31.28125 31.238282h-.113281c-31.277344-29.652344-53.742188-62.898438-66.78125-98.855469-12.109376-33.402344-15.289063-67.851563-9.191407-99.636719 5.589844-29.476562 18.535157-54.175781 37.433594-71.441406 18.660156-17.042969 42.335937-26.054688 68.472656-26.054688 30.898438 0 63.425781 12.578126 96.679688 37.382813 3.15625 2.355469 7.480469 2.386719 10.667969.070313 32.757812-23.78125 66.03125-36.351563 96.222656-36.351563 26.070312 0 49.785156 8.972656 68.578125 25.949219 18.933593 17.105468 32.039062 41.5 37.886719 70.484375 9.226562 47.546875-2.558594 99.660156-33.191407 146.738281zm-159.394531 58.9375.09375-.019531c14.679688-3.382813 29.324219 5.769531 32.714844 20.449219l.023437.089843-.082031.019531c-14.679688 3.367188-29.316406-5.78125-32.730469-20.449218zm0 0"/></g></svg>